inDegrees=yes
name=ik_lifting_orientations
DataType=double
version=3
OpenSimVersion=4.5-2024-01-10-34fd6af
endheader
time	pelvis_tilt	pelvis_list	pelvis_rotation	pelvis_tx	pelvis_ty	pelvis_tz	hip_flexion_r	hip_adduction_r	hip_rotation_r	knee_angle_r	knee_angle_r_beta	ankle_angle_r	subtalar_angle_r	mtp_angle_r	hip_flexion_l	hip_adduction_l	hip_rotation_l	knee_angle_l	knee_angle_l_beta	ankle_angle_l	subtalar_angle_l	mtp_angle_l	lumbar_extension	lumbar_bending	lumbar_rotation	arm_flex_r	arm_add_r	arm_rot_r	elbow_flex_r	pro_sup_r	wrist_flex_r	wrist_dev_r	arm_flex_l	arm_add_l	arm_rot_l	elbow_flex_l	pro_sup_l	wrist_flex_l	wrist_dev_l
1.42	-6.965835954429589	-6.702920960125372	-92.27752776871169	0	0.9399999998679526	0	44.99535744454113	-10.16514639037651	0	59.99780892802166	1.047159309776427	-5.044759755346934	0	0	44.99535744454113	-10.16514639037651	0	59.99780892802166	1.047159309776427	-5.044759755346934	0	0	-6.756254985054167	6.439575669553465	-7.314812071447089	-1.872523455843028	-7.348867664814681	27.99249437859422	39.33951212909112	1.518271039129854	0	0	0	-11.79855202119815	0	88.5117243596185	1.518271039129854	0	0
1.43	-6.531519808962878	-6.334586019275902	-91.8624926502214	0	0.9399999998679526	0	44.99535902814563	-10.16494955095737	0	59.99780955212925	1.04715932066916	-5.044690167529546	0	0	44.99535902814563	-10.16494955095737	0	59.99780955212925	1.04715932066916	-5.044690167529546	0	0	-6.443764456216519	6.201379346526235	-8.392157102828827	-1.029376109166562	-8.011122411737182	28.58592010808258	40.67381843467211	1.517910642988483	0	0	0	-11.79911148651275	0	88.51207759080569	1.517910642988483	0	0
1.44	-6.091339122040748	-6.002007969797672	-91.28245475829256	0	0.9399999998679526	0	44.99536027013903	-10.16479541365251	0	59.99781004196203	1.047159329218355	-5.044635701730731	0	0	44.99536027013903	-10.16479541365251	0	59.99781004196203	1.047159329218355	-5.044635701730731	0	0	-6.106360211561523	5.891652509288421	-9.524181016512429	-0.1049185665843276	-8.706997601078278	29.14427335939079	42.29157707492504	1.517627892701064	0	0	0	-11.7995505371487	0	88.51235471980392	1.517627892701064	0	0
1.45	-5.723635446378141	-5.65205663030755	-90.75449750581475	0	0.9399999998679526	0	44.99536175951689	-10.16461047162262	0	59.99781062880804	1.04715933946075	-5.044570354359606	0	0	44.99536175951689	-10.16461047162262	0	59.99781062880804	1.04715933946075	-5.044570354359606	0	0	-5.753384260867734	5.651588679939292	-10.60940825000413	0.8235263235256115	-9.429149906937097	29.70162944608587	43.94212597143525	1.517288925155488	0	0	0	-11.80007673609982	0	88.5126869484142	1.517288925155488	0	0
1.46	-5.300136857120695	-5.303565860195214	-90.09195244639264	0	0.9399999998679526	0	44.99536346750242	-10.16439843173153	0	59.99781130149655	1.047159351201379	-5.04449545056227	0	0	44.99536346750242	-10.16439843173153	0	59.99781130149655	1.047159351201379	-5.04449545056227	0	0	-5.392820578486146	5.380062390410078	-11.80974239014425	1.780827281333961	-10.03099651493002	30.13844327815115	45.83752586562933	1.516900240193639	0	0	0	-11.80068005197518	0	88.51306790601923	1.516900240193639	0	0
1.47	-4.882455929163656	-4.935004978835176	-89.48389202806599	0	0.9399999998679526	0	44.99536520778819	-10.16418254350418	0	59.99781198686031	1.047159363163233	-5.044419214958393	0	0	44.99536520778819	-10.16418254350418	0	59.99781198686031	1.047159363163233	-5.044419214958393	0	0	-5.03582772570114	5.100385664286025	-12.9693796413874	2.822900943194311	-10.69083501938233	30.55631080100015	48.03989080802907	1.516504182394001	0	0	0	-11.80129482402489	0	88.51345608988613	1.516504182394001	0	0
1.48	-4.451175659496257	-4.572061857142352	-88.92958728501165	0	0.9399999998679526	0	44.99536660044395	-10.16401008416905	0	59.99781253577046	1.047159372743523	-5.044358347697498	0	0	44.99536660044395	-10.16401008416905	0	59.99781253577046	1.047159372743523	-5.044358347697498	0	0	-4.739810579102822	4.83558914061793	-13.91179860680982	4.114873096907793	-11.40318612257428	31.02400569401808	50.13336678842673	1.516187115355523	0	0	0	-11.80178713529244	0	88.51376685339548	1.516187115355523	0	0
1.49	-4.037907084064996	-4.173350490117169	-88.35481586995172	0	0.9399999998679526	0	44.99536819446425	-10.1638126722565	0	59.99781316365377	1.047159383702154	-5.044288685359438	0	0	44.99536819446425	-10.1638126722565	0	59.99781316365377	1.047159383702154	-5.044288685359438	0	0	-4.395339743061483	4.591663811069123	-14.8667139472169	5.63317319302427	-12.09223122954212	31.69029741805583	52.24195861019394	1.515824265873876	0	0	0	-11.80235043773903	0	88.51412248915631	1.515824265873876	0	0
1.5	-3.784382840346557	-3.975585245072263	-88.02815965789429	0	0.9399999998679526	0	44.99536948135042	-10.16365362980988	0	59.99781367111094	1.047159392558952	-5.044232596042444	0	0	44.99536948135042	-10.16365362980988	0	59.99781367111094	1.047159392558952	-5.044232596042444	0	0	-4.26960298461372	4.459445636918571	-15.46724621124812	6.783599992719392	-12.75818481665168	32.26629134385767	54.71677036669325	1.515531185716747	0	0	0	-11.80280560635678	0	88.51440974266691	1.515531185716747	0	0
1.51	-3.269534378993679	-3.456435981149736	-87.24838466435313	0	0.9399999998679526	0	44.99537101720588	-10.16346375496702	0	59.99781427626553	1.047159403120892	-5.044165640254324	0	0	44.99537101720588	-10.16346375496702	0	59.99781427626553	1.047159403120892	-5.044165640254324	0	0	-3.774227176204205	4.08523248067796	-16.57797496828028	8.518984841336161	-13.4362719109733	33.05413915437303	57.09642926768699	1.515181488136206	0	0	0	-11.80334858232002	0	88.51475248800175	1.515181488136206	0	0
1.52	-2.742778419246381	-2.942465609825927	-86.47418997224283	0	0.9399999998679526	0	44.99537254916946	-10.16327450287497	0	59.99781487989393	1.047159413656195	-5.044098926523632	0	0	44.99537254916946	-10.16327450287497	0	59.99781487989393	1.047159413656195	-5.044098926523632	0	0	-3.281500346360833	3.647396061746593	-17.58496824702269	10.2330678320807	-13.9733125482935	33.7943852910842	59.51948420873535	1.514832649716122	0	0	0	-11.80389024650533	0	88.51509439125877	1.514832649716122	0	0
1.53	-2.402511990443197	-2.593615668303599	-85.99006860590522	0	0.9399999998679526	0	44.99537405478518	-10.16308858395223	0	59.99781547298874	1.047159424007652	-5.044033405820318	0	0	44.99537405478518	-10.16308858395223	0	59.99781547298874	1.047159424007652	-5.044033405820318	0	0	-2.952381812351703	3.346765206715781	-18.09836315482831	12.03858193525941	-14.43919542601943	34.45346620667924	61.99421086412686	1.514489819448192	0	0	0	-11.80442255693218	0	88.51543040581028	1.514489819448192	0	0
1.54	-2.070242240984093	-2.209757002348939	-85.62039339176818	0	0.9399999998679526	0	44.99537583298539	-10.16286905063807	0	59.99781617313951	1.047159436227589	-5.043956057785169	0	0	44.99537583298539	-10.16286905063807	0	59.99781617313951	1.047159436227589	-5.043956057785169	0	0	-2.620053652015467	3.080930864298737	-18.4723409904365	13.70884962452907	-14.75170813190959	35.2844492022552	61.99637684805013	1.514084961341494	0	0	0	-11.80505110870255	0	88.51582721504052	1.514084961341494	0	0
1.55	-1.763082523472173	-1.892967896536398	-85.46474313075215	0	0.9399999998679526	0	44.99537751072565	-10.16266209330161	0	59.99781683373983	1.047159447757239	-5.043883168249582	0	0	44.99537751072565	-10.16266209330161	0	59.99781683373983	1.047159447757239	-5.043883168249582	0	0	-2.355746831116186	2.826180173587868	-18.52622787725386	15.49905411838874	-14.9205563990673	36.12300814133655	61.78696059814617	1.513702943569606	0	0	0	-11.80564422619606	0	88.5162016380208	1.513702943569606	0	0
1.56	-1.592690760355256	-1.765810659002343	-85.34686842358309	0	0.9399999998679526	0	44.99537891303505	-10.1624893817776	0	59.99781738625203	1.047159457400396	-5.043822370210624	0	0	44.99537891303505	-10.1624893817776	0	59.99781738625203	1.047159457400396	-5.043822370210624	0	0	-2.310827684987103	2.748540060169629	-18.32808171222925	17.37985966199128	-15.08602740844444	36.47078961324217	64.19030576409263	1.513383536872235	0	0	0	-11.80614025885865	0	88.51651469468599	1.513383536872235	0	0
1.57	-1.297311979555948	-1.462187564887855	-85.12349045501438	0	0.9399999998679526	0	44.99538011503831	-10.16234156390652	0	59.9978178601651	1.04715946567174	-5.043770359454561	0	0	44.99538011503831	-10.16234156390652	0	59.9978178601651	1.04715946567174	-5.043770359454561	0	0	-2.098908575512278	2.521809068448436	-18.23666213352343	19.32375400330911	-15.30033697581132	36.85876406589729	66.92341518687448	1.513109664953452	0	0	0	-11.80656568501957	0	88.51678312184112	1.513109664953452	0	0
1.58	-0.9907344013145498	-1.128087207303936	-84.78512330089508	0	0.9399999998679526	0	44.99538148307925	-10.16217332725061	0	59.99781839928501	1.047159475081157	-5.043711173403171	0	0	44.99538148307925	-10.16217332725061	0	59.99781839928501	1.047159475081157	-5.043711173403171	0	0	-1.844141088741015	2.289329530784735	-17.90207309251367	21.18364089756314	-15.65393056646911	36.80317984690995	69.68487037796616	1.512798000664654	0	0	0	-11.80704975631518	0	88.51708859002629	1.512798000664654	0	0
1.59	-0.6698817066884263	-0.7812717648343381	-84.46105226314612	0	0.9399999998679526	0	44.99538279403423	-10.1620122486268	0	59.99781891599226	1.0471594840994	-5.043654524615216	0	0	44.99538279403423	-10.1620122486268	0	59.99781891599226	1.0471594840994	-5.043654524615216	0	0	-1.559687739273457	1.997529678277514	-17.57650781166255	22.97829478992112	-15.919150967162	36.8092275079527	72.33303126548442	1.512499303615098	0	0	0	-11.80751372703166	0	88.51738134877225	1.512499303615098	0	0
1.6	-0.4419824239427736	-0.4877836222840202	-84.33328046848695	0	0.9399999998679526	0	44.99538485437404	-10.16175888562396	0	59.99781972700209	1.047159498254192	-5.043565425966599	0	0	44.99538485437404	-10.16175888562396	0	59.99781972700209	1.047159498254192	-5.043565425966599	0	0	-1.322221233954177	1.794288114581954	-16.49903650631243	24.62757858800999	-16.31171348803224	36.38105664980592	75.02626418897019	1.512030060244403	0	0	0	-11.80824232774035	0	88.51784126325181	1.512030060244403	0	0
1.61	-0.2839161816575627	-0.3396054997362393	-84.39486446585113	0	0.9399999998679526	0	44.9953864577992	-10.16156201878173	0	59.99782035851666	1.0471595092762	-5.0434962314903	0	0	44.9953864577992	-10.16156201878173	0	59.99782035851666	1.0471595092762	-5.0434962314903	0	0	-1.251886199461632	1.666863432460914	-15.17086946185285	26.31074853882563	-16.6030214381931	35.98904560000828	77.58176640771772	1.511664768466904	0	0	0	-11.8088096513585	0	88.51819929277576	1.511664768466904	0	0
